<mxfile host="65bd71144e">
    <diagram id="6dWsMdS8HI779MfqCZYf" name="attendance">
        <mxGraphModel dx="1512" dy="1968" grid="1" gridSize="10" guides="1" tooltips="1" connect="1" arrows="1" fold="1" page="1" pageScale="1" pageWidth="850" pageHeight="1100" math="0" shadow="0">
            <root>
                <mxCell id="0"/>
                <mxCell id="1" parent="0"/>
                <mxCell id="69" value="" style="edgeStyle=none;html=1;" edge="1" parent="1" source="53" target="57">
                    <mxGeometry relative="1" as="geometry">
                        <mxPoint x="870" y="-740" as="targetPoint"/>
                    </mxGeometry>
                </mxCell>
                <mxCell id="114" value="" style="edgeStyle=none;html=1;fontSize=12;" edge="1" parent="1" source="53" target="113">
                    <mxGeometry relative="1" as="geometry"/>
                </mxCell>
                <mxCell id="53" value="" style="strokeWidth=1;shadow=0;dashed=0;align=center;html=1;shape=mxgraph.mockup.containers.browserWindow;rSize=0;strokeColor=#666666;strokeColor2=#008cff;strokeColor3=#c4c4c4;mainText=,;recursiveResize=0;rounded=1;glass=0;sketch=0;fillStyle=dashed;gradientColor=none;container=0;" vertex="1" parent="1">
                    <mxGeometry x="170" y="-1000" width="630" height="510" as="geometry"/>
                </mxCell>
                <mxCell id="58" value="Page 1" style="strokeWidth=1;shadow=0;dashed=0;align=center;html=1;shape=mxgraph.mockup.containers.anchor;fontSize=17;fontColor=#666666;align=left;rounded=1;glass=0;sketch=0;fillStyle=dashed;gradientColor=none;" vertex="1" parent="1">
                    <mxGeometry x="940" y="-988" width="110" height="26" as="geometry"/>
                </mxCell>
                <mxCell id="59" value="https://www.draw.io" style="strokeWidth=1;shadow=0;dashed=0;align=center;html=1;shape=mxgraph.mockup.containers.anchor;rSize=0;fontSize=17;fontColor=#666666;align=left;rounded=1;glass=0;sketch=0;fillStyle=dashed;gradientColor=none;" vertex="1" parent="1">
                    <mxGeometry x="1010" y="-940" width="250" height="26" as="geometry"/>
                </mxCell>
                <mxCell id="78" value="" style="group;fontStyle=4" vertex="1" connectable="0" parent="1">
                    <mxGeometry x="880" y="-1020" width="630" height="560" as="geometry"/>
                </mxCell>
                <mxCell id="57" value="" style="strokeWidth=1;shadow=0;dashed=0;align=center;html=1;shape=mxgraph.mockup.containers.browserWindow;rSize=0;strokeColor=#666666;strokeColor2=#008cff;strokeColor3=#c4c4c4;mainText=,;recursiveResize=0;rounded=1;glass=0;sketch=0;fillStyle=dashed;gradientColor=none;container=0;" vertex="1" parent="78">
                    <mxGeometry width="630" height="560" as="geometry"/>
                </mxCell>
                <mxCell id="61" value="Nguyen Van A" style="rounded=0;whiteSpace=wrap;html=1;" vertex="1" parent="78">
                    <mxGeometry x="295" y="269.99901960784314" width="220" height="43.92156862745098" as="geometry"/>
                </mxCell>
                <mxCell id="67" value="ĐANG LÀM VIỆC ....." style="rounded=0;whiteSpace=wrap;html=1;shadow=0;glass=0;sketch=0;fillStyle=dashed;strokeColor=#C73500;fillColor=#fa6800;fontColor=#FFFFFF;" vertex="1" parent="78">
                    <mxGeometry x="235" y="230" width="160" height="32.94" as="geometry"/>
                </mxCell>
                <mxCell id="70" value="NƠI LÀM VIỆC&amp;nbsp;" style="rounded=0;whiteSpace=wrap;html=1;shadow=0;glass=0;sketch=0;fillStyle=dashed;strokeColor=default;gradientColor=none;" vertex="1" parent="78">
                    <mxGeometry x="135" y="324.9009803921569" width="130" height="43.92156862745098" as="geometry"/>
                </mxCell>
                <mxCell id="71" value="THỜI GIAN BẮT ĐẦU" style="rounded=0;whiteSpace=wrap;html=1;shadow=0;glass=0;sketch=0;fillStyle=dashed;strokeColor=default;gradientColor=none;" vertex="1" parent="78">
                    <mxGeometry x="135" y="379.8029411764706" width="130" height="43.92156862745098" as="geometry"/>
                </mxCell>
                <mxCell id="72" value="NHÀ" style="rounded=0;whiteSpace=wrap;html=1;shadow=0;glass=0;sketch=0;fillStyle=dashed;strokeColor=default;gradientColor=none;" vertex="1" parent="78">
                    <mxGeometry x="295" y="324.9009803921569" width="220" height="43.92156862745098" as="geometry"/>
                </mxCell>
                <mxCell id="73" value="8 : 00 AM" style="rounded=0;whiteSpace=wrap;html=1;shadow=0;glass=0;sketch=0;fillStyle=dashed;strokeColor=default;gradientColor=none;" vertex="1" parent="78">
                    <mxGeometry x="295" y="379.8029411764706" width="220" height="43.92156862745098" as="geometry"/>
                </mxCell>
                <mxCell id="74" value="TÊN NHÂN VIÊN" style="rounded=0;whiteSpace=wrap;html=1;" vertex="1" parent="78">
                    <mxGeometry x="135" y="269.99901960784314" width="130" height="43.92156862745098" as="geometry"/>
                </mxCell>
                <mxCell id="75" value="8 : 02 : 00" style="rounded=0;whiteSpace=wrap;html=1;shadow=0;glass=0;sketch=0;fillStyle=dashed;strokeColor=default;gradientColor=none;fontSize=44;" vertex="1" parent="78">
                    <mxGeometry x="170" y="439.21568627450984" width="310" height="65.88235294117648" as="geometry"/>
                </mxCell>
                <mxCell id="nhIUQJDC3G5dFTjCovD2-136" value="" style="group" vertex="1" connectable="0" parent="78">
                    <mxGeometry x="110" y="131.76470588235296" width="410" height="32.94117647058824" as="geometry"/>
                </mxCell>
                <mxCell id="nhIUQJDC3G5dFTjCovD2-137" value="ĐIỂM DANH" style="fillColor=none;strokeColor=none;fontSize=12;fontColor=#0085FC;rounded=1;shadow=0;glass=0;sketch=0;fillStyle=dashed;" vertex="1" parent="nhIUQJDC3G5dFTjCovD2-136">
                    <mxGeometry width="80" height="32.94117647058824" as="geometry"/>
                </mxCell>
                <mxCell id="nhIUQJDC3G5dFTjCovD2-138" value="THÔNG TIN CÁ NHÂN" style="fillColor=none;strokeColor=none;fontSize=12;fontColor=#0085FC;rounded=1;shadow=0;glass=0;sketch=0;fillStyle=dashed;" vertex="1" parent="nhIUQJDC3G5dFTjCovD2-136">
                    <mxGeometry x="125" width="60" height="32.94117647058824" as="geometry"/>
                </mxCell>
                <mxCell id="nhIUQJDC3G5dFTjCovD2-139" value="GIỜ LÀM / LƯƠNG" style="fillColor=none;strokeColor=none;fontSize=12;fontColor=#0085FC;rounded=1;shadow=0;glass=0;sketch=0;fillStyle=dashed;" vertex="1" parent="nhIUQJDC3G5dFTjCovD2-136">
                    <mxGeometry x="260" width="60" height="32.94117647058824" as="geometry"/>
                </mxCell>
                <mxCell id="nhIUQJDC3G5dFTjCovD2-140" value="COVID" style="fillColor=none;strokeColor=none;fontSize=12;fontColor=#0085FC;rounded=1;shadow=0;glass=0;sketch=0;fillStyle=dashed;" vertex="1" parent="nhIUQJDC3G5dFTjCovD2-136">
                    <mxGeometry x="350" width="60" height="32.94117647058824" as="geometry"/>
                </mxCell>
                <mxCell id="nhIUQJDC3G5dFTjCovD2-141" value="" style="group" vertex="1" connectable="0" parent="78">
                    <mxGeometry x="147.5" y="180" width="335" height="33.33" as="geometry"/>
                </mxCell>
                <mxCell id="nhIUQJDC3G5dFTjCovD2-142" value="KẾT THÚC LÀM VIỆC" style="rounded=1;whiteSpace=wrap;html=1;strokeColor=#001DBC;glass=0;shadow=0;sketch=0;fillColor=#0050ef;fontColor=#ffffff;" vertex="1" parent="nhIUQJDC3G5dFTjCovD2-141">
                    <mxGeometry width="152.5" height="33.33" as="geometry"/>
                </mxCell>
                <mxCell id="nhIUQJDC3G5dFTjCovD2-143" value="NGHỈ PHÉP" style="rounded=1;whiteSpace=wrap;html=1;strokeColor=#314354;glass=0;shadow=0;sketch=0;fillColor=#647687;fontColor=#ffffff;" vertex="1" parent="nhIUQJDC3G5dFTjCovD2-141">
                    <mxGeometry x="185" width="150" height="33.33" as="geometry"/>
                </mxCell>
                <mxCell id="nhIUQJDC3G5dFTjCovD2-163" value="" style="edgeStyle=none;html=1;fontSize=12;fontColor=#FFFFFF;" edge="1" parent="1" source="79" target="113">
                    <mxGeometry relative="1" as="geometry"/>
                </mxCell>
                <mxCell id="79" value="" style="strokeWidth=1;shadow=0;dashed=0;align=center;html=1;shape=mxgraph.mockup.containers.browserWindow;rSize=0;strokeColor=#666666;strokeColor2=#008cff;strokeColor3=#c4c4c4;mainText=,;recursiveResize=0;rounded=1;glass=0;sketch=0;fillStyle=dashed;gradientColor=none;container=0;" vertex="1" parent="1">
                    <mxGeometry x="880" y="-370" width="630" height="625" as="geometry"/>
                </mxCell>
                <mxCell id="80" value="" style="edgeStyle=none;html=1;fontSize=44;" edge="1" parent="1" source="57" target="79">
                    <mxGeometry relative="1" as="geometry"/>
                </mxCell>
                <mxCell id="83" value="SỐ GIỜ LÀM" style="rounded=0;whiteSpace=wrap;html=1;" vertex="1" parent="1">
                    <mxGeometry x="1007.5" y="-60" width="180" height="40" as="geometry"/>
                </mxCell>
                <mxCell id="88" value="8" style="rounded=0;whiteSpace=wrap;html=1;" vertex="1" parent="1">
                    <mxGeometry x="1197.5" y="-60" width="190" height="40" as="geometry"/>
                </mxCell>
                <mxCell id="54" value="Page 1" style="strokeWidth=1;shadow=0;dashed=0;align=center;html=1;shape=mxgraph.mockup.containers.anchor;fontSize=17;fontColor=#666666;align=left;rounded=1;glass=0;sketch=0;fillStyle=dashed;gradientColor=none;" vertex="1" parent="1">
                    <mxGeometry x="230" y="-988" width="110" height="26" as="geometry"/>
                </mxCell>
                <mxCell id="55" value="https://www.draw.io" style="strokeWidth=1;shadow=0;dashed=0;align=center;html=1;shape=mxgraph.mockup.containers.anchor;rSize=0;fontSize=17;fontColor=#666666;align=left;rounded=1;glass=0;sketch=0;fillStyle=dashed;gradientColor=none;" vertex="1" parent="1">
                    <mxGeometry x="300" y="-940" width="250" height="26" as="geometry"/>
                </mxCell>
                <mxCell id="20" value="Nguyen Van A" style="rounded=0;whiteSpace=wrap;html=1;" vertex="1" parent="1">
                    <mxGeometry x="375" y="-690" width="220" height="40" as="geometry"/>
                </mxCell>
                <mxCell id="22" value="Chọn nơi làm việc " style="swimlane;fontStyle=0;childLayout=stackLayout;horizontal=1;startSize=30;horizontalStack=0;resizeParent=1;resizeParentMax=0;resizeLast=0;collapsible=1;marginBottom=0;" vertex="1" collapsed="1" parent="1">
                    <mxGeometry x="375" y="-610" width="220" height="30" as="geometry">
                        <mxRectangle x="295" y="400" width="220" height="120" as="alternateBounds"/>
                    </mxGeometry>
                </mxCell>
                <mxCell id="23" value="Nhà " style="text;strokeColor=default;fillColor=none;align=center;verticalAlign=middle;spacingLeft=4;spacingRight=4;overflow=hidden;points=[[0,0.5],[1,0.5]];portConstraint=eastwest;rotatable=0;" vertex="1" parent="22">
                    <mxGeometry y="30" width="220" height="30" as="geometry"/>
                </mxCell>
                <mxCell id="24" value="Công ty" style="text;strokeColor=default;fillColor=none;align=center;verticalAlign=middle;spacingLeft=4;spacingRight=4;overflow=hidden;points=[[0,0.5],[1,0.5]];portConstraint=eastwest;rotatable=0;" vertex="1" parent="22">
                    <mxGeometry y="60" width="220" height="30" as="geometry"/>
                </mxCell>
                <mxCell id="25" value="Khách hàng " style="text;strokeColor=none;fillColor=none;align=center;verticalAlign=middle;spacingLeft=4;spacingRight=4;overflow=hidden;points=[[0,0.5],[1,0.5]];portConstraint=eastwest;rotatable=0;" vertex="1" parent="22">
                    <mxGeometry y="90" width="220" height="30" as="geometry"/>
                </mxCell>
                <mxCell id="105" value="" style="shape=table;startSize=0;container=1;collapsible=0;childLayout=tableLayout;rounded=1;shadow=0;glass=0;sketch=0;fillStyle=dashed;fontSize=12;strokeColor=default;gradientColor=none;" vertex="1" parent="1">
                    <mxGeometry x="1002.5" width="380" height="60" as="geometry"/>
                </mxCell>
                <mxCell id="106" value="" style="shape=partialRectangle;collapsible=0;dropTarget=0;pointerEvents=0;fillColor=none;top=0;left=0;bottom=0;right=0;points=[[0,0.5],[1,0.5]];portConstraint=eastwest;rounded=1;shadow=0;glass=0;sketch=0;fillStyle=dashed;fontSize=12;strokeColor=default;" vertex="1" parent="105">
                    <mxGeometry width="380" height="20" as="geometry"/>
                </mxCell>
                <mxCell id="107" value="THỜI GIAN BẮT ĐẦU" style="shape=partialRectangle;html=1;whiteSpace=wrap;connectable=0;overflow=hidden;fillColor=none;top=0;left=0;bottom=0;right=0;pointerEvents=1;rounded=1;shadow=0;glass=0;sketch=0;fillStyle=dashed;fontSize=12;strokeColor=default;" vertex="1" parent="106">
                    <mxGeometry width="190" height="20" as="geometry">
                        <mxRectangle width="190" height="20" as="alternateBounds"/>
                    </mxGeometry>
                </mxCell>
                <mxCell id="108" value="8 : 00 AM" style="shape=partialRectangle;html=1;whiteSpace=wrap;connectable=0;overflow=hidden;fillColor=none;top=0;left=0;bottom=0;right=0;pointerEvents=1;rounded=1;shadow=0;glass=0;sketch=0;fillStyle=dashed;fontSize=12;strokeColor=default;" vertex="1" parent="106">
                    <mxGeometry x="190" width="190" height="20" as="geometry">
                        <mxRectangle width="190" height="20" as="alternateBounds"/>
                    </mxGeometry>
                </mxCell>
                <mxCell id="109" value="" style="shape=partialRectangle;collapsible=0;dropTarget=0;pointerEvents=0;fillColor=none;top=0;left=0;bottom=0;right=0;points=[[0,0.5],[1,0.5]];portConstraint=eastwest;rounded=1;shadow=0;glass=0;sketch=0;fillStyle=dashed;fontSize=12;strokeColor=default;" vertex="1" parent="105">
                    <mxGeometry y="20" width="380" height="40" as="geometry"/>
                </mxCell>
                <mxCell id="110" value="THỜI GIAN KẾT THÚC" style="shape=partialRectangle;html=1;whiteSpace=wrap;connectable=0;overflow=hidden;fillColor=none;top=0;left=0;bottom=0;right=0;pointerEvents=1;rounded=1;shadow=0;glass=0;sketch=0;fillStyle=dashed;fontSize=12;strokeColor=default;" vertex="1" parent="109">
                    <mxGeometry width="190" height="40" as="geometry">
                        <mxRectangle width="190" height="40" as="alternateBounds"/>
                    </mxGeometry>
                </mxCell>
                <mxCell id="111" value="11 : 00 AM" style="shape=partialRectangle;html=1;whiteSpace=wrap;connectable=0;overflow=hidden;fillColor=none;top=0;left=0;bottom=0;right=0;pointerEvents=1;rounded=1;shadow=0;glass=0;sketch=0;fillStyle=dashed;fontSize=12;strokeColor=default;" vertex="1" parent="109">
                    <mxGeometry x="190" width="190" height="40" as="geometry">
                        <mxRectangle width="190" height="40" as="alternateBounds"/>
                    </mxGeometry>
                </mxCell>
                <mxCell id="nhIUQJDC3G5dFTjCovD2-198" value="" style="edgeStyle=none;html=1;fontSize=12;fontColor=#FFFFFF;" edge="1" parent="1" source="113" target="nhIUQJDC3G5dFTjCovD2-197">
                    <mxGeometry relative="1" as="geometry"/>
                </mxCell>
                <mxCell id="113" value="" style="strokeWidth=1;shadow=0;dashed=0;align=center;html=1;shape=mxgraph.mockup.containers.browserWindow;rSize=0;strokeColor=#666666;strokeColor2=#008cff;strokeColor3=#c4c4c4;mainText=,;recursiveResize=0;rounded=1;glass=0;sketch=0;fillStyle=dashed;gradientColor=none;container=0;" vertex="1" parent="1">
                    <mxGeometry x="170" y="-370" width="630" height="730" as="geometry"/>
                </mxCell>
                <mxCell id="115" value="3" style="rounded=0;whiteSpace=wrap;html=1;shadow=0;glass=0;sketch=0;fillStyle=dashed;strokeColor=default;gradientColor=none;" vertex="1" parent="1">
                    <mxGeometry x="455" y="90" width="220" height="40" as="geometry"/>
                </mxCell>
                <mxCell id="116" value="CHỌN NGÀY NGHỈ" style="rounded=0;whiteSpace=wrap;html=1;" vertex="1" parent="1">
                    <mxGeometry x="295" y="-40" width="145" height="40" as="geometry"/>
                </mxCell>
                <mxCell id="117" value="..........................." style="rounded=0;whiteSpace=wrap;html=1;" vertex="1" parent="1">
                    <mxGeometry x="455" y="-40" width="220" height="40" as="geometry"/>
                </mxCell>
                <mxCell id="118" value="SỐ NGÀY NGHỈ CÒN LẠI" style="rounded=0;whiteSpace=wrap;html=1;shadow=0;glass=0;sketch=0;fillStyle=dashed;strokeColor=default;gradientColor=none;" vertex="1" parent="1">
                    <mxGeometry x="290" y="240" width="145" height="40" as="geometry"/>
                </mxCell>
                <mxCell id="nhIUQJDC3G5dFTjCovD2-131" value="" style="group" vertex="1" connectable="0" parent="1">
                    <mxGeometry x="300" y="-860" width="410" height="30" as="geometry"/>
                </mxCell>
                <mxCell id="nhIUQJDC3G5dFTjCovD2-121" value="ĐIỂM DANH" style="fillColor=none;strokeColor=none;fontSize=12;fontColor=#0085FC;rounded=1;shadow=0;glass=0;sketch=0;fillStyle=dashed;" vertex="1" parent="nhIUQJDC3G5dFTjCovD2-131">
                    <mxGeometry width="80" height="30" as="geometry"/>
                </mxCell>
                <mxCell id="nhIUQJDC3G5dFTjCovD2-122" value="THÔNG TIN CÁ NHÂN" style="fillColor=none;strokeColor=none;fontSize=12;fontColor=#0085FC;rounded=1;shadow=0;glass=0;sketch=0;fillStyle=dashed;" vertex="1" parent="nhIUQJDC3G5dFTjCovD2-131">
                    <mxGeometry x="125" width="60" height="30" as="geometry"/>
                </mxCell>
                <mxCell id="nhIUQJDC3G5dFTjCovD2-123" value="GIỜ LÀM / LƯƠNG" style="fillColor=none;strokeColor=none;fontSize=12;fontColor=#0085FC;rounded=1;shadow=0;glass=0;sketch=0;fillStyle=dashed;" vertex="1" parent="nhIUQJDC3G5dFTjCovD2-131">
                    <mxGeometry x="260" width="60" height="30" as="geometry"/>
                </mxCell>
                <mxCell id="nhIUQJDC3G5dFTjCovD2-130" value="COVID" style="fillColor=none;strokeColor=none;fontSize=12;fontColor=#0085FC;rounded=1;shadow=0;glass=0;sketch=0;fillStyle=dashed;" vertex="1" parent="nhIUQJDC3G5dFTjCovD2-131">
                    <mxGeometry x="350" width="60" height="30" as="geometry"/>
                </mxCell>
                <mxCell id="nhIUQJDC3G5dFTjCovD2-135" value="" style="group" vertex="1" connectable="0" parent="1">
                    <mxGeometry x="317.5" y="-780" width="335" height="40" as="geometry"/>
                </mxCell>
                <mxCell id="26" value="ĐIỂM DANH" style="rounded=1;whiteSpace=wrap;html=1;strokeColor=#006EAF;glass=0;shadow=0;sketch=0;fillColor=#1ba1e2;fontColor=#ffffff;" vertex="1" parent="nhIUQJDC3G5dFTjCovD2-135">
                    <mxGeometry width="152.5" height="40" as="geometry"/>
                </mxCell>
                <mxCell id="112" value="NGHỈ PHÉP" style="rounded=1;whiteSpace=wrap;html=1;strokeColor=#006EAF;glass=0;shadow=0;sketch=0;fillColor=#1ba1e2;fontColor=#ffffff;" vertex="1" parent="nhIUQJDC3G5dFTjCovD2-135">
                    <mxGeometry x="185" width="150" height="40" as="geometry"/>
                </mxCell>
                <mxCell id="nhIUQJDC3G5dFTjCovD2-154" value="" style="group" vertex="1" connectable="0" parent="1">
                    <mxGeometry x="990" y="-249.99529411764706" width="410" height="32.94117647058824" as="geometry"/>
                </mxCell>
                <mxCell id="nhIUQJDC3G5dFTjCovD2-155" value="ĐIỂM DANH" style="fillColor=none;strokeColor=none;fontSize=12;fontColor=#0085FC;rounded=1;shadow=0;glass=0;sketch=0;fillStyle=dashed;" vertex="1" parent="nhIUQJDC3G5dFTjCovD2-154">
                    <mxGeometry width="80" height="32.94117647058824" as="geometry"/>
                </mxCell>
                <mxCell id="nhIUQJDC3G5dFTjCovD2-156" value="THÔNG TIN CÁ NHÂN" style="fillColor=none;strokeColor=none;fontSize=12;fontColor=#0085FC;rounded=1;shadow=0;glass=0;sketch=0;fillStyle=dashed;" vertex="1" parent="nhIUQJDC3G5dFTjCovD2-154">
                    <mxGeometry x="125" width="60" height="32.94117647058824" as="geometry"/>
                </mxCell>
                <mxCell id="nhIUQJDC3G5dFTjCovD2-157" value="GIỜ LÀM / LƯƠNG" style="fillColor=none;strokeColor=none;fontSize=12;fontColor=#0085FC;rounded=1;shadow=0;glass=0;sketch=0;fillStyle=dashed;" vertex="1" parent="nhIUQJDC3G5dFTjCovD2-154">
                    <mxGeometry x="260" width="60" height="32.94117647058824" as="geometry"/>
                </mxCell>
                <mxCell id="nhIUQJDC3G5dFTjCovD2-158" value="COVID" style="fillColor=none;strokeColor=none;fontSize=12;fontColor=#0085FC;rounded=1;shadow=0;glass=0;sketch=0;fillStyle=dashed;" vertex="1" parent="nhIUQJDC3G5dFTjCovD2-154">
                    <mxGeometry x="350" width="60" height="32.94117647058824" as="geometry"/>
                </mxCell>
                <mxCell id="nhIUQJDC3G5dFTjCovD2-159" value="" style="group" vertex="1" connectable="0" parent="1">
                    <mxGeometry x="1027.5" y="-200" width="335" height="33.33" as="geometry"/>
                </mxCell>
                <mxCell id="nhIUQJDC3G5dFTjCovD2-160" value="ĐIỂM DANH" style="rounded=1;whiteSpace=wrap;html=1;strokeColor=#006EAF;glass=0;shadow=0;sketch=0;fillColor=#1ba1e2;fontColor=#ffffff;" vertex="1" parent="nhIUQJDC3G5dFTjCovD2-159">
                    <mxGeometry width="152.5" height="33.33" as="geometry"/>
                </mxCell>
                <mxCell id="nhIUQJDC3G5dFTjCovD2-161" value="NGHỈ PHÉP" style="rounded=1;whiteSpace=wrap;html=1;strokeColor=#006EAF;glass=0;shadow=0;sketch=0;fillColor=#1ba1e2;fontColor=#ffffff;" vertex="1" parent="nhIUQJDC3G5dFTjCovD2-159">
                    <mxGeometry x="185" width="150" height="33.33" as="geometry"/>
                </mxCell>
                <mxCell id="nhIUQJDC3G5dFTjCovD2-162" value="KẾT THÚC LÀM VIỆC" style="rounded=0;whiteSpace=wrap;html=1;shadow=0;glass=0;sketch=0;fillStyle=dashed;strokeColor=#314354;fillColor=#647687;fontColor=#ffffff;" vertex="1" parent="1">
                    <mxGeometry x="1115" y="-142.94000000000005" width="160" height="32.94" as="geometry"/>
                </mxCell>
                <mxCell id="nhIUQJDC3G5dFTjCovD2-169" value="" style="group" vertex="1" connectable="0" parent="1">
                    <mxGeometry x="280" y="-199.99529411764706" width="410" height="32.94117647058824" as="geometry"/>
                </mxCell>
                <mxCell id="nhIUQJDC3G5dFTjCovD2-170" value="ĐIỂM DANH" style="fillColor=none;strokeColor=none;fontSize=12;fontColor=#0085FC;rounded=1;shadow=0;glass=0;sketch=0;fillStyle=dashed;" vertex="1" parent="nhIUQJDC3G5dFTjCovD2-169">
                    <mxGeometry width="80" height="32.94117647058824" as="geometry"/>
                </mxCell>
                <mxCell id="nhIUQJDC3G5dFTjCovD2-171" value="THÔNG TIN CÁ NHÂN" style="fillColor=none;strokeColor=none;fontSize=12;fontColor=#0085FC;rounded=1;shadow=0;glass=0;sketch=0;fillStyle=dashed;" vertex="1" parent="nhIUQJDC3G5dFTjCovD2-169">
                    <mxGeometry x="125" width="60" height="32.94117647058824" as="geometry"/>
                </mxCell>
                <mxCell id="nhIUQJDC3G5dFTjCovD2-172" value="GIỜ LÀM / LƯƠNG" style="fillColor=none;strokeColor=none;fontSize=12;fontColor=#0085FC;rounded=1;shadow=0;glass=0;sketch=0;fillStyle=dashed;" vertex="1" parent="nhIUQJDC3G5dFTjCovD2-169">
                    <mxGeometry x="260" width="60" height="32.94117647058824" as="geometry"/>
                </mxCell>
                <mxCell id="nhIUQJDC3G5dFTjCovD2-173" value="COVID" style="fillColor=none;strokeColor=none;fontSize=12;fontColor=#0085FC;rounded=1;shadow=0;glass=0;sketch=0;fillStyle=dashed;" vertex="1" parent="nhIUQJDC3G5dFTjCovD2-169">
                    <mxGeometry x="350" width="60" height="32.94117647058824" as="geometry"/>
                </mxCell>
                <mxCell id="nhIUQJDC3G5dFTjCovD2-175" value="" style="group" vertex="1" connectable="0" parent="1">
                    <mxGeometry x="317.5" y="-160" width="335" height="33.33" as="geometry"/>
                </mxCell>
                <mxCell id="nhIUQJDC3G5dFTjCovD2-176" value="ĐIỂM DANH" style="rounded=1;whiteSpace=wrap;html=1;strokeColor=#006EAF;glass=0;shadow=0;sketch=0;fillColor=#1ba1e2;fontColor=#ffffff;" vertex="1" parent="nhIUQJDC3G5dFTjCovD2-175">
                    <mxGeometry width="152.5" height="33.33" as="geometry"/>
                </mxCell>
                <mxCell id="nhIUQJDC3G5dFTjCovD2-177" value="NGHỈ PHÉP" style="rounded=1;whiteSpace=wrap;html=1;strokeColor=#001DBC;glass=0;shadow=0;sketch=0;fillColor=#0050ef;fontColor=#ffffff;" vertex="1" parent="nhIUQJDC3G5dFTjCovD2-175">
                    <mxGeometry x="185" width="150" height="33.33" as="geometry"/>
                </mxCell>
                <mxCell id="nhIUQJDC3G5dFTjCovD2-178" value="LÝ DO" style="rounded=0;whiteSpace=wrap;html=1;" vertex="1" parent="1">
                    <mxGeometry x="295" y="20" width="145" height="40" as="geometry"/>
                </mxCell>
                <mxCell id="nhIUQJDC3G5dFTjCovD2-179" value="..........................." style="rounded=0;whiteSpace=wrap;html=1;" vertex="1" parent="1">
                    <mxGeometry x="455" y="20" width="220" height="40" as="geometry"/>
                </mxCell>
                <mxCell id="nhIUQJDC3G5dFTjCovD2-180" value="CHỌN SỐ GIỜ NGHỈ" style="rounded=0;whiteSpace=wrap;html=1;shadow=0;glass=0;sketch=0;fillStyle=dashed;strokeColor=default;gradientColor=none;" vertex="1" parent="1">
                    <mxGeometry x="295" y="90" width="145" height="40" as="geometry"/>
                </mxCell>
                <mxCell id="nhIUQJDC3G5dFTjCovD2-181" value="5" style="rounded=0;whiteSpace=wrap;html=1;shadow=0;glass=0;sketch=0;fillStyle=dashed;strokeColor=default;gradientColor=none;" vertex="1" parent="1">
                    <mxGeometry x="450" y="240" width="220" height="40" as="geometry"/>
                </mxCell>
                <mxCell id="nhIUQJDC3G5dFTjCovD2-190" value="" style="verticalLabelPosition=bottom;shadow=0;dashed=0;align=center;html=1;verticalAlign=top;strokeWidth=1;shape=mxgraph.mockup.markup.line;strokeColor=#999999;rounded=1;glass=0;sketch=0;fillStyle=dashed;fontSize=12;fontColor=#FFFFFF;gradientColor=none;" vertex="1" parent="1">
                    <mxGeometry x="285" y="210" width="390" height="20" as="geometry"/>
                </mxCell>
                <mxCell id="nhIUQJDC3G5dFTjCovD2-191" value="SÔ GIỜ NGHỈ&amp;nbsp;" style="rounded=0;whiteSpace=wrap;html=1;shadow=0;glass=0;sketch=0;fillStyle=dashed;strokeColor=default;gradientColor=none;" vertex="1" parent="1">
                    <mxGeometry x="290" y="300" width="145" height="40" as="geometry"/>
                </mxCell>
                <mxCell id="nhIUQJDC3G5dFTjCovD2-192" value="5" style="rounded=0;whiteSpace=wrap;html=1;shadow=0;glass=0;sketch=0;fillStyle=dashed;strokeColor=default;gradientColor=none;" vertex="1" parent="1">
                    <mxGeometry x="450" y="300" width="220" height="40" as="geometry"/>
                </mxCell>
                <mxCell id="nhIUQJDC3G5dFTjCovD2-196" value="ĐĂNG KÝ" style="rounded=1;whiteSpace=wrap;html=1;strokeColor=#006EAF;glass=0;shadow=0;sketch=0;fillColor=#1ba1e2;fontColor=#ffffff;" vertex="1" parent="1">
                    <mxGeometry x="408.75" y="150" width="152.5" height="33.33" as="geometry"/>
                </mxCell>
                <mxCell id="nhIUQJDC3G5dFTjCovD2-229" value="" style="edgeStyle=none;html=1;fontSize=12;fontColor=#FFFFFF;" edge="1" parent="1" source="nhIUQJDC3G5dFTjCovD2-197" target="nhIUQJDC3G5dFTjCovD2-228">
                    <mxGeometry relative="1" as="geometry"/>
                </mxCell>
                <mxCell id="nhIUQJDC3G5dFTjCovD2-197" value="" style="strokeWidth=1;shadow=0;dashed=0;align=center;html=1;shape=mxgraph.mockup.containers.browserWindow;rSize=0;strokeColor=#666666;strokeColor2=#008cff;strokeColor3=#c4c4c4;mainText=,;recursiveResize=0;rounded=1;glass=0;sketch=0;fillStyle=dashed;gradientColor=none;container=0;" vertex="1" parent="1">
                    <mxGeometry x="170" y="440" width="630" height="740" as="geometry"/>
                </mxCell>
                <mxCell id="nhIUQJDC3G5dFTjCovD2-199" value="" style="group" vertex="1" connectable="0" parent="1">
                    <mxGeometry x="280" y="570.0047058823529" width="410" height="32.94117647058824" as="geometry"/>
                </mxCell>
                <mxCell id="nhIUQJDC3G5dFTjCovD2-200" value="ĐIỂM DANH" style="fillColor=none;strokeColor=none;fontSize=12;fontColor=#0085FC;rounded=1;shadow=0;glass=0;sketch=0;fillStyle=dashed;" vertex="1" parent="nhIUQJDC3G5dFTjCovD2-199">
                    <mxGeometry width="80" height="32.94117647058824" as="geometry"/>
                </mxCell>
                <mxCell id="nhIUQJDC3G5dFTjCovD2-201" value="THÔNG TIN CÁ NHÂN" style="fillColor=none;strokeColor=none;fontSize=12;fontColor=#0085FC;rounded=1;shadow=0;glass=0;sketch=0;fillStyle=dashed;" vertex="1" parent="nhIUQJDC3G5dFTjCovD2-199">
                    <mxGeometry x="125" width="60" height="32.94117647058824" as="geometry"/>
                </mxCell>
                <mxCell id="nhIUQJDC3G5dFTjCovD2-202" value="GIỜ LÀM / LƯƠNG" style="fillColor=none;strokeColor=none;fontSize=12;fontColor=#0085FC;rounded=1;shadow=0;glass=0;sketch=0;fillStyle=dashed;" vertex="1" parent="nhIUQJDC3G5dFTjCovD2-199">
                    <mxGeometry x="260" width="60" height="32.94117647058824" as="geometry"/>
                </mxCell>
                <mxCell id="nhIUQJDC3G5dFTjCovD2-203" value="COVID" style="fillColor=none;strokeColor=none;fontSize=12;fontColor=#0085FC;rounded=1;shadow=0;glass=0;sketch=0;fillStyle=dashed;" vertex="1" parent="nhIUQJDC3G5dFTjCovD2-199">
                    <mxGeometry x="350" width="60" height="32.94117647058824" as="geometry"/>
                </mxCell>
                <mxCell id="nhIUQJDC3G5dFTjCovD2-206" value="ID" style="rounded=0;whiteSpace=wrap;html=1;" vertex="1" parent="1">
                    <mxGeometry x="300" y="840" width="145" height="40" as="geometry"/>
                </mxCell>
                <mxCell id="nhIUQJDC3G5dFTjCovD2-207" value="HỌ &amp;amp;&amp;amp; TÊN" style="rounded=0;whiteSpace=wrap;html=1;" vertex="1" parent="1">
                    <mxGeometry x="300" y="890" width="145" height="40" as="geometry"/>
                </mxCell>
                <mxCell id="nhIUQJDC3G5dFTjCovD2-208" value="..........................." style="rounded=0;whiteSpace=wrap;html=1;" vertex="1" parent="1">
                    <mxGeometry x="460" y="840" width="220" height="40" as="geometry"/>
                </mxCell>
                <mxCell id="nhIUQJDC3G5dFTjCovD2-209" value="..........................." style="rounded=0;whiteSpace=wrap;html=1;" vertex="1" parent="1">
                    <mxGeometry x="460" y="890" width="220" height="40" as="geometry"/>
                </mxCell>
                <mxCell id="nhIUQJDC3G5dFTjCovD2-210" value="3" style="rounded=0;whiteSpace=wrap;html=1;shadow=0;glass=0;sketch=0;fillStyle=dashed;strokeColor=default;gradientColor=none;" vertex="1" parent="1">
                    <mxGeometry x="460" y="940" width="220" height="40" as="geometry"/>
                </mxCell>
                <mxCell id="nhIUQJDC3G5dFTjCovD2-211" value="NGÀY SINH" style="rounded=0;whiteSpace=wrap;html=1;shadow=0;glass=0;sketch=0;fillStyle=dashed;strokeColor=default;gradientColor=none;" vertex="1" parent="1">
                    <mxGeometry x="300" y="940" width="145" height="40" as="geometry"/>
                </mxCell>
                <mxCell id="nhIUQJDC3G5dFTjCovD2-212" value="HỆ SỐ LƯƠNG" style="rounded=0;whiteSpace=wrap;html=1;" vertex="1" parent="1">
                    <mxGeometry x="300" y="990" width="145" height="40" as="geometry"/>
                </mxCell>
                <mxCell id="nhIUQJDC3G5dFTjCovD2-213" value="..........................." style="rounded=0;whiteSpace=wrap;html=1;" vertex="1" parent="1">
                    <mxGeometry x="460" y="990" width="220" height="40" as="geometry"/>
                </mxCell>
                <mxCell id="nhIUQJDC3G5dFTjCovD2-214" value="..........................." style="rounded=0;whiteSpace=wrap;html=1;" vertex="1" parent="1">
                    <mxGeometry x="460" y="1040" width="220" height="40" as="geometry"/>
                </mxCell>
                <mxCell id="nhIUQJDC3G5dFTjCovD2-215" value="PHÒNG BAN" style="rounded=0;whiteSpace=wrap;html=1;" vertex="1" parent="1">
                    <mxGeometry x="300" y="1040" width="145" height="40" as="geometry"/>
                </mxCell>
                <mxCell id="nhIUQJDC3G5dFTjCovD2-216" value="SỐ NGÀY NGHỈ CÒN LẠI" style="rounded=0;whiteSpace=wrap;html=1;shadow=0;glass=0;sketch=0;fillStyle=dashed;strokeColor=default;gradientColor=none;" vertex="1" parent="1">
                    <mxGeometry x="300" y="1090" width="145" height="40" as="geometry"/>
                </mxCell>
                <mxCell id="nhIUQJDC3G5dFTjCovD2-217" value="3" style="rounded=0;whiteSpace=wrap;html=1;shadow=0;glass=0;sketch=0;fillStyle=dashed;strokeColor=default;gradientColor=none;" vertex="1" parent="1">
                    <mxGeometry x="460" y="1090" width="220" height="40" as="geometry"/>
                </mxCell>
                <mxCell id="nhIUQJDC3G5dFTjCovD2-227" value="" style="verticalLabelPosition=bottom;shadow=0;dashed=0;align=center;html=1;verticalAlign=top;strokeWidth=1;shape=mxgraph.mockup.containers.userMale;strokeColor=#666666;strokeColor2=#008cff;rounded=1;glass=0;sketch=0;fillStyle=dashed;fontSize=12;fontColor=#FFFFFF;gradientColor=none;" vertex="1" parent="1">
                    <mxGeometry x="380" y="602.95" width="200" height="217.05" as="geometry"/>
                </mxCell>
                <mxCell id="nhIUQJDC3G5dFTjCovD2-228" value="" style="strokeWidth=1;shadow=0;dashed=0;align=center;html=1;shape=mxgraph.mockup.containers.browserWindow;rSize=0;strokeColor=#666666;strokeColor2=#008cff;strokeColor3=#c4c4c4;mainText=,;recursiveResize=0;rounded=1;glass=0;sketch=0;fillStyle=dashed;gradientColor=none;container=0;" vertex="1" parent="1">
                    <mxGeometry x="877.5" y="440" width="630" height="900" as="geometry"/>
                </mxCell>
                <mxCell id="nhIUQJDC3G5dFTjCovD2-230" value="" style="group" vertex="1" connectable="0" parent="1">
                    <mxGeometry x="990" y="570.0047058823529" width="410" height="32.94117647058824" as="geometry"/>
                </mxCell>
                <mxCell id="nhIUQJDC3G5dFTjCovD2-231" value="ĐIỂM DANH" style="fillColor=none;strokeColor=none;fontSize=12;fontColor=#0085FC;rounded=1;shadow=0;glass=0;sketch=0;fillStyle=dashed;" vertex="1" parent="nhIUQJDC3G5dFTjCovD2-230">
                    <mxGeometry width="80" height="32.94117647058824" as="geometry"/>
                </mxCell>
                <mxCell id="nhIUQJDC3G5dFTjCovD2-232" value="THÔNG TIN CÁ NHÂN" style="fillColor=none;strokeColor=none;fontSize=12;fontColor=#0085FC;rounded=1;shadow=0;glass=0;sketch=0;fillStyle=dashed;" vertex="1" parent="nhIUQJDC3G5dFTjCovD2-230">
                    <mxGeometry x="125" width="60" height="32.94117647058824" as="geometry"/>
                </mxCell>
                <mxCell id="nhIUQJDC3G5dFTjCovD2-233" value="GIỜ LÀM / LƯƠNG" style="fillColor=none;strokeColor=none;fontSize=12;fontColor=#0085FC;rounded=1;shadow=0;glass=0;sketch=0;fillStyle=dashed;" vertex="1" parent="nhIUQJDC3G5dFTjCovD2-230">
                    <mxGeometry x="260" width="60" height="32.94117647058824" as="geometry"/>
                </mxCell>
                <mxCell id="nhIUQJDC3G5dFTjCovD2-234" value="COVID" style="fillColor=none;strokeColor=none;fontSize=12;fontColor=#0085FC;rounded=1;shadow=0;glass=0;sketch=0;fillStyle=dashed;" vertex="1" parent="nhIUQJDC3G5dFTjCovD2-230">
                    <mxGeometry x="350" width="60" height="32.94117647058824" as="geometry"/>
                </mxCell>
                <mxCell id="nhIUQJDC3G5dFTjCovD2-275" value="" style="shape=table;startSize=0;container=1;collapsible=0;childLayout=tableLayout;rounded=1;shadow=0;glass=0;sketch=0;fillStyle=dashed;fontSize=12;fontColor=#FFFFFF;strokeColor=default;gradientColor=none;" vertex="1" parent="1">
                    <mxGeometry x="1002.5" y="750" width="407.5" height="280" as="geometry"/>
                </mxCell>
                <mxCell id="nhIUQJDC3G5dFTjCovD2-276" value="" style="shape=partialRectangle;collapsible=0;dropTarget=0;pointerEvents=0;fillColor=none;top=0;left=0;bottom=0;right=0;points=[[0,0.5],[1,0.5]];portConstraint=eastwest;rounded=1;shadow=0;glass=0;sketch=0;fillStyle=dashed;fontSize=12;fontColor=#FFFFFF;strokeColor=default;" vertex="1" parent="nhIUQJDC3G5dFTjCovD2-275">
                    <mxGeometry width="407.5" height="40" as="geometry"/>
                </mxCell>
                <mxCell id="nhIUQJDC3G5dFTjCovD2-277" value="NGÀY" style="shape=partialRectangle;html=1;whiteSpace=wrap;connectable=0;overflow=hidden;fillColor=none;top=0;left=0;bottom=0;right=0;pointerEvents=1;rounded=1;shadow=0;glass=0;sketch=0;fillStyle=dashed;fontSize=12;fontColor=#FFFFFF;strokeColor=default;" vertex="1" parent="nhIUQJDC3G5dFTjCovD2-276">
                    <mxGeometry width="204" height="40" as="geometry">
                        <mxRectangle width="204" height="40" as="alternateBounds"/>
                    </mxGeometry>
                </mxCell>
                <mxCell id="nhIUQJDC3G5dFTjCovD2-278" value="" style="shape=partialRectangle;html=1;whiteSpace=wrap;connectable=0;overflow=hidden;fillColor=none;top=0;left=0;bottom=0;right=0;pointerEvents=1;rounded=1;shadow=0;glass=0;sketch=0;fillStyle=dashed;fontSize=12;fontColor=#FFFFFF;strokeColor=default;" vertex="1" parent="nhIUQJDC3G5dFTjCovD2-276">
                    <mxGeometry x="204" width="204" height="40" as="geometry">
                        <mxRectangle width="204" height="40" as="alternateBounds"/>
                    </mxGeometry>
                </mxCell>
                <mxCell id="nhIUQJDC3G5dFTjCovD2-279" value="" style="shape=partialRectangle;collapsible=0;dropTarget=0;pointerEvents=0;fillColor=none;top=0;left=0;bottom=0;right=0;points=[[0,0.5],[1,0.5]];portConstraint=eastwest;rounded=1;shadow=0;glass=0;sketch=0;fillStyle=dashed;fontSize=12;fontColor=#FFFFFF;strokeColor=default;" vertex="1" parent="nhIUQJDC3G5dFTjCovD2-275">
                    <mxGeometry y="40" width="407.5" height="40" as="geometry"/>
                </mxCell>
                <mxCell id="nhIUQJDC3G5dFTjCovD2-280" value="GIỜ BẮT ĐẦU" style="shape=partialRectangle;html=1;whiteSpace=wrap;connectable=0;overflow=hidden;fillColor=none;top=0;left=0;bottom=0;right=0;pointerEvents=1;rounded=1;shadow=0;glass=0;sketch=0;fillStyle=dashed;fontSize=12;fontColor=#FFFFFF;strokeColor=default;" vertex="1" parent="nhIUQJDC3G5dFTjCovD2-279">
                    <mxGeometry width="204" height="40" as="geometry">
                        <mxRectangle width="204" height="40" as="alternateBounds"/>
                    </mxGeometry>
                </mxCell>
                <mxCell id="nhIUQJDC3G5dFTjCovD2-281" value="" style="shape=partialRectangle;html=1;whiteSpace=wrap;connectable=0;overflow=hidden;fillColor=none;top=0;left=0;bottom=0;right=0;pointerEvents=1;rounded=1;shadow=0;glass=0;sketch=0;fillStyle=dashed;fontSize=12;fontColor=#FFFFFF;strokeColor=default;" vertex="1" parent="nhIUQJDC3G5dFTjCovD2-279">
                    <mxGeometry x="204" width="204" height="40" as="geometry">
                        <mxRectangle width="204" height="40" as="alternateBounds"/>
                    </mxGeometry>
                </mxCell>
                <mxCell id="nhIUQJDC3G5dFTjCovD2-282" value="" style="shape=partialRectangle;collapsible=0;dropTarget=0;pointerEvents=0;fillColor=none;top=0;left=0;bottom=0;right=0;points=[[0,0.5],[1,0.5]];portConstraint=eastwest;rounded=1;shadow=0;glass=0;sketch=0;fillStyle=dashed;fontSize=12;fontColor=#FFFFFF;strokeColor=default;" vertex="1" parent="nhIUQJDC3G5dFTjCovD2-275">
                    <mxGeometry y="80" width="407.5" height="40" as="geometry"/>
                </mxCell>
                <mxCell id="nhIUQJDC3G5dFTjCovD2-283" value="GIỜ KẾT THÚC" style="shape=partialRectangle;html=1;whiteSpace=wrap;connectable=0;overflow=hidden;fillColor=none;top=0;left=0;bottom=0;right=0;pointerEvents=1;rounded=1;shadow=0;glass=0;sketch=0;fillStyle=dashed;fontSize=12;fontColor=#FFFFFF;strokeColor=default;" vertex="1" parent="nhIUQJDC3G5dFTjCovD2-282">
                    <mxGeometry width="204" height="40" as="geometry">
                        <mxRectangle width="204" height="40" as="alternateBounds"/>
                    </mxGeometry>
                </mxCell>
                <mxCell id="nhIUQJDC3G5dFTjCovD2-284" value="" style="shape=partialRectangle;html=1;whiteSpace=wrap;connectable=0;overflow=hidden;fillColor=none;top=0;left=0;bottom=0;right=0;pointerEvents=1;rounded=1;shadow=0;glass=0;sketch=0;fillStyle=dashed;fontSize=12;fontColor=#FFFFFF;strokeColor=default;" vertex="1" parent="nhIUQJDC3G5dFTjCovD2-282">
                    <mxGeometry x="204" width="204" height="40" as="geometry">
                        <mxRectangle width="204" height="40" as="alternateBounds"/>
                    </mxGeometry>
                </mxCell>
                <mxCell id="nhIUQJDC3G5dFTjCovD2-285" value="" style="shape=partialRectangle;collapsible=0;dropTarget=0;pointerEvents=0;fillColor=none;top=0;left=0;bottom=0;right=0;points=[[0,0.5],[1,0.5]];portConstraint=eastwest;rounded=1;shadow=0;glass=0;sketch=0;fillStyle=dashed;fontSize=12;fontColor=#FFFFFF;strokeColor=default;" vertex="1" parent="nhIUQJDC3G5dFTjCovD2-275">
                    <mxGeometry y="120" width="407.5" height="40" as="geometry"/>
                </mxCell>
                <mxCell id="nhIUQJDC3G5dFTjCovD2-286" value="NƠI LÀM VIỆC" style="shape=partialRectangle;html=1;whiteSpace=wrap;connectable=0;overflow=hidden;fillColor=none;top=0;left=0;bottom=0;right=0;pointerEvents=1;rounded=1;shadow=0;glass=0;sketch=0;fillStyle=dashed;fontSize=12;fontColor=#FFFFFF;strokeColor=default;" vertex="1" parent="nhIUQJDC3G5dFTjCovD2-285">
                    <mxGeometry width="204" height="40" as="geometry">
                        <mxRectangle width="204" height="40" as="alternateBounds"/>
                    </mxGeometry>
                </mxCell>
                <mxCell id="nhIUQJDC3G5dFTjCovD2-287" value="" style="shape=partialRectangle;html=1;whiteSpace=wrap;connectable=0;overflow=hidden;fillColor=none;top=0;left=0;bottom=0;right=0;pointerEvents=1;rounded=1;shadow=0;glass=0;sketch=0;fillStyle=dashed;fontSize=12;fontColor=#FFFFFF;strokeColor=default;" vertex="1" parent="nhIUQJDC3G5dFTjCovD2-285">
                    <mxGeometry x="204" width="204" height="40" as="geometry">
                        <mxRectangle width="204" height="40" as="alternateBounds"/>
                    </mxGeometry>
                </mxCell>
                <mxCell id="nhIUQJDC3G5dFTjCovD2-288" value="" style="shape=partialRectangle;collapsible=0;dropTarget=0;pointerEvents=0;fillColor=none;top=0;left=0;bottom=0;right=0;points=[[0,0.5],[1,0.5]];portConstraint=eastwest;rounded=1;shadow=0;glass=0;sketch=0;fillStyle=dashed;fontSize=12;fontColor=#FFFFFF;strokeColor=default;" vertex="1" parent="nhIUQJDC3G5dFTjCovD2-275">
                    <mxGeometry y="160" width="407.5" height="40" as="geometry"/>
                </mxCell>
                <mxCell id="nhIUQJDC3G5dFTjCovD2-289" value="SỐ GIỜ LÀM THÊM" style="shape=partialRectangle;html=1;whiteSpace=wrap;connectable=0;overflow=hidden;fillColor=none;top=0;left=0;bottom=0;right=0;pointerEvents=1;rounded=1;shadow=0;glass=0;sketch=0;fillStyle=dashed;fontSize=12;fontColor=#FFFFFF;strokeColor=default;" vertex="1" parent="nhIUQJDC3G5dFTjCovD2-288">
                    <mxGeometry width="204" height="40" as="geometry">
                        <mxRectangle width="204" height="40" as="alternateBounds"/>
                    </mxGeometry>
                </mxCell>
                <mxCell id="nhIUQJDC3G5dFTjCovD2-290" value="" style="shape=partialRectangle;html=1;whiteSpace=wrap;connectable=0;overflow=hidden;fillColor=none;top=0;left=0;bottom=0;right=0;pointerEvents=1;rounded=1;shadow=0;glass=0;sketch=0;fillStyle=dashed;fontSize=12;fontColor=#FFFFFF;strokeColor=default;" vertex="1" parent="nhIUQJDC3G5dFTjCovD2-288">
                    <mxGeometry x="204" width="204" height="40" as="geometry">
                        <mxRectangle width="204" height="40" as="alternateBounds"/>
                    </mxGeometry>
                </mxCell>
                <mxCell id="nhIUQJDC3G5dFTjCovD2-291" value="" style="shape=partialRectangle;collapsible=0;dropTarget=0;pointerEvents=0;fillColor=none;top=0;left=0;bottom=0;right=0;points=[[0,0.5],[1,0.5]];portConstraint=eastwest;rounded=1;shadow=0;glass=0;sketch=0;fillStyle=dashed;fontSize=12;fontColor=#FFFFFF;strokeColor=default;" vertex="1" parent="nhIUQJDC3G5dFTjCovD2-275">
                    <mxGeometry y="200" width="407.5" height="40" as="geometry"/>
                </mxCell>
                <mxCell id="nhIUQJDC3G5dFTjCovD2-292" value="TÔNG GIỜ LÀM" style="shape=partialRectangle;html=1;whiteSpace=wrap;connectable=0;overflow=hidden;fillColor=none;top=0;left=0;bottom=0;right=0;pointerEvents=1;rounded=1;shadow=0;glass=0;sketch=0;fillStyle=dashed;fontSize=12;fontColor=#FFFFFF;strokeColor=default;" vertex="1" parent="nhIUQJDC3G5dFTjCovD2-291">
                    <mxGeometry width="204" height="40" as="geometry">
                        <mxRectangle width="204" height="40" as="alternateBounds"/>
                    </mxGeometry>
                </mxCell>
                <mxCell id="nhIUQJDC3G5dFTjCovD2-293" value="" style="shape=partialRectangle;html=1;whiteSpace=wrap;connectable=0;overflow=hidden;fillColor=none;top=0;left=0;bottom=0;right=0;pointerEvents=1;rounded=1;shadow=0;glass=0;sketch=0;fillStyle=dashed;fontSize=12;fontColor=#FFFFFF;strokeColor=default;" vertex="1" parent="nhIUQJDC3G5dFTjCovD2-291">
                    <mxGeometry x="204" width="204" height="40" as="geometry">
                        <mxRectangle width="204" height="40" as="alternateBounds"/>
                    </mxGeometry>
                </mxCell>
                <mxCell id="nhIUQJDC3G5dFTjCovD2-294" value="" style="shape=partialRectangle;collapsible=0;dropTarget=0;pointerEvents=0;fillColor=none;top=0;left=0;bottom=0;right=0;points=[[0,0.5],[1,0.5]];portConstraint=eastwest;rounded=1;shadow=0;glass=0;sketch=0;fillStyle=dashed;fontSize=12;fontColor=#FFFFFF;strokeColor=default;" vertex="1" parent="nhIUQJDC3G5dFTjCovD2-275">
                    <mxGeometry y="240" width="407.5" height="40" as="geometry"/>
                </mxCell>
                <mxCell id="nhIUQJDC3G5dFTjCovD2-295" value="SỐ NGÀY NGHỈ CÒN LẠI" style="shape=partialRectangle;html=1;whiteSpace=wrap;connectable=0;overflow=hidden;fillColor=none;top=0;left=0;bottom=0;right=0;pointerEvents=1;rounded=1;shadow=0;glass=0;sketch=0;fillStyle=dashed;fontSize=12;fontColor=#FFFFFF;strokeColor=default;" vertex="1" parent="nhIUQJDC3G5dFTjCovD2-294">
                    <mxGeometry width="204" height="40" as="geometry">
                        <mxRectangle width="204" height="40" as="alternateBounds"/>
                    </mxGeometry>
                </mxCell>
                <mxCell id="nhIUQJDC3G5dFTjCovD2-296" value="" style="shape=partialRectangle;html=1;whiteSpace=wrap;connectable=0;overflow=hidden;fillColor=none;top=0;left=0;bottom=0;right=0;pointerEvents=1;rounded=1;shadow=0;glass=0;sketch=0;fillStyle=dashed;fontSize=12;fontColor=#FFFFFF;strokeColor=default;" vertex="1" parent="nhIUQJDC3G5dFTjCovD2-294">
                    <mxGeometry x="204" width="204" height="40" as="geometry">
                        <mxRectangle width="204" height="40" as="alternateBounds"/>
                    </mxGeometry>
                </mxCell>
            </root>
        </mxGraphModel>
    </diagram>
</mxfile>